<?xml version="1.0" encoding="UTF-8"?>
<svg width="24px" height="24px" viewBox="0 0 24 24" version="1.1" xmlns="http://www.w3.org/2000/svg">
    <title>Gift</title>
    <g stroke="none" stroke-width="1" fill="none" fill-rule="evenodd">
        <rect x="0" y="0" width="24" height="24"/>
        <path d="M4,6 L20,6 C20.5522847,6 21,6.44771525 21,7 L21,16 C21,16.5522847 20.5522847,17 20,17 L4,17 C3.44771525,17 3,16.5522847 3,16 L3,7 C3,6.44771525 3.44771525,6 4,6 Z" fill="#000000" opacity="0.3"/>
        <path d="M12,10 L12,14 C12,14.5522847 11.5522847,15 11,15 C10.4477153,15 10,14.5522847 10,14 L10,10 C10,9.44771525 10.4477153,9 11,9 C11.5522847,9 12,9.44771525 12,10 Z" fill="#000000"/>
        <rect fill="#000000" x="12" y="9" width="2" height="6" rx="1"/>
    </g>
</svg>
